<svg width="573" height="434" viewBox="0 0 573 434" fill="none" xmlns="http://www.w3.org/2000/svg">
<g clip-path="url(#clip0_2534_276)">
<mask id="mask0_2534_276" style="mask-type:luminance" maskUnits="userSpaceOnUse" x="0" y="0" width="573" height="434">
<path d="M0 0L0 434L573 434V0L0 0Z" fill="white"/>
</mask>
<g mask="url(#mask0_2534_276)">
<path d="M-102.781 -87.5112L-221.083 30.7772C-225.206 34.9 -225.206 41.5844 -221.083 45.7072L109.318 376.07C113.441 380.193 120.127 380.193 124.25 376.07L242.552 257.782C246.675 253.659 246.675 246.975 242.552 242.852L-87.8493 -87.5112C-91.9726 -91.634 -98.6578 -91.634 -102.781 -87.5112Z" fill="#95AE00"/>
<path d="M320.541 196.926L202.239 315.215C198.116 319.337 198.116 326.022 202.239 330.145L532.64 660.508C536.764 664.631 543.449 664.631 547.572 660.508L665.874 542.22C669.997 538.097 669.997 531.412 665.874 527.29L335.473 196.926C331.35 192.804 324.665 192.804 320.541 196.926Z" fill="#AFCB07"/>
<path d="M176.846 341.578L95.5205 422.894C91.3973 427.017 91.3973 433.702 95.5205 437.824L425.922 768.188C430.045 772.31 436.73 772.31 440.853 768.188L522.179 686.871C526.302 682.749 526.302 676.064 522.179 671.941L191.778 341.578C187.654 337.455 180.969 337.455 176.846 341.578Z" fill="#91A900"/>
<path d="M-209.582 90.1372L-327.884 208.426C-332.007 212.548 -332.007 219.233 -327.884 223.356L2.51731 553.719C6.6406 557.842 13.3257 557.842 17.449 553.719L135.751 435.43C139.874 431.308 139.874 424.623 135.751 420.5L-194.65 90.1373C-198.773 86.0145 -205.459 86.0144 -209.582 90.1372Z" fill="#AFCB07"/>
</g>
</g>
<defs>
<clipPath id="clip0_2534_276">
<rect width="573" height="434" fill="white"/>
</clipPath>
</defs>
</svg>
